# xmcd
#
# Track frame offsets: 
#        150
#        12612
#        28725
#        39200
#        52862
#        63200
#        76312
#        86187
#        102575
#        112200
#
# Disc length: 1673 seconds
#
# Revision: 0
# Processed by: cddbd v1.4PL0 Copyright (c) Steve Scherf et al.
# Submitted via: ExactAudioCopy v0.90b3
#
DISCID=7e06870a
DTITLE=Barbara and Louise Mandrell - Sisters In Song
DYEAR=1900
DGENRE=Country
TTITLE0=The Midnight Oil (Barbara)
TTITLE1=Put It On Me (Louise)
TTITLE2=This Time I Almost Made It (Barbara)
TTITLE3=Wake Me Up (Louise)
TTITLE4=Treat Him Right (Barbara)
TTITLE5=Everlasting Love (Louise)
TTITLE6=Wonder When My Baby's Comin' Home (Barbara)
TTITLE7=I Never Loved Anyone Like I Love You (Louise and R.C. Bannon)
TTITLE8=Tonight My Baby's Coming Home (Barbara)
TTITLE9=Beggin' For Mercy (Louise)
EXTD=
EXTT0=
EXTT1=
EXTT2=
EXTT3=
EXTT4=
EXTT5=
EXTT6=
EXTT7=
EXTT8=
EXTT9=
PLAYORDER=
